<svg width="38" height="39" viewBox="0 0 38 39" fill="none" xmlns="http://www.w3.org/2000/svg">
<g id="price_tag_icon">
<path id="Path" fill-rule="evenodd" clip-rule="evenodd" d="M23.2634 23.5121C23.2634 24.0411 23.6982 24.4759 24.2272 24.4759C24.7561 24.4758 25.191 24.041 25.191 23.512C25.191 22.983 24.7562 22.5482 24.2272 22.5482C23.6938 22.5438 23.2589 22.9786 23.2634 23.5121Z" fill="white"/>
<path id="Path_2" fill-rule="evenodd" clip-rule="evenodd" d="M17.1126 24.1131C16.5836 24.1131 16.1487 24.548 16.1487 25.0769C16.1487 25.6059 16.5835 26.0407 17.1125 26.0407C17.6414 26.0407 18.0763 25.6058 18.0763 25.0769C18.0764 24.5479 17.646 24.1175 17.1126 24.1131Z" fill="white"/>
<path id="Shape" fill-rule="evenodd" clip-rule="evenodd" d="M17.0508 2.30831C16.3291 2.00799 14.8229 1.79288 12.8413 3.73854L12.7786 3.80131C11.5726 5.00726 10.4563 6.76012 9.62687 8.75505C9.47444 9.12265 9.33545 9.48577 9.21439 9.84889L9.1875 9.84889C7.59607 9.87138 6.30942 11.158 6.28693 12.7495L6.1745 20.5452C6.15652 21.5763 6.55993 22.5715 7.29061 23.3021L20.3038 36.3154C21.3528 37.3643 23.0563 37.3642 24.1053 36.3152L32.7577 27.6628C33.8067 26.6138 33.8068 24.9103 32.7579 23.8613L19.7447 10.8481C19.3726 10.476 18.9288 10.1847 18.4491 10.0009C18.8168 8.69186 19.0096 7.42319 19.0052 6.29799C18.9829 3.53204 17.7726 2.60863 17.0508 2.30831ZM15.4672 26.7267C14.5617 25.8212 14.5618 24.3418 15.4674 23.4362C16.373 22.5307 17.8523 22.5306 18.7578 23.4361C19.6633 24.3416 19.6633 25.8209 18.7577 26.7265C17.8521 27.6321 16.3817 27.6322 15.4672 26.7267ZM20.5507 29.1203C20.5821 29.4296 20.8555 29.6582 21.1693 29.6313C21.4787 29.5999 21.7073 29.3265 21.6804 29.0127L20.7977 19.4866C20.7664 19.1772 20.4929 18.9486 20.1791 18.9755C19.8698 19.0069 19.6412 19.2804 19.668 19.5942L20.5507 29.1203ZM25.8766 25.1572C24.971 26.0628 23.4916 26.0628 22.5861 25.1573C21.6806 24.2518 21.6807 22.7725 22.5863 21.8669C23.4919 20.9613 24.9712 20.9612 25.8767 21.8667C26.7822 22.7722 26.7822 24.2516 25.8766 25.1572ZM13.8719 14.3898C14.5264 13.5022 15.1317 12.4128 15.6159 11.2473C17.2748 7.26637 16.7593 4.6439 16.1811 4.39737C15.9928 4.31669 15.3831 4.41534 14.4282 5.35231L14.3834 5.39714C13.3971 6.38342 12.4287 7.91662 11.7203 9.62015C11.6979 9.68738 11.671 9.75014 11.6441 9.8129L11.6441 9.81291L14.7777 9.77242C14.6566 10.1355 14.5176 10.5076 14.3562 10.8932C13.8989 11.987 13.3385 13.0047 12.7333 13.8609C12.0608 13.7623 11.3525 13.9686 10.8325 14.4886C9.96278 15.3583 9.96272 16.766 10.8324 17.6356C11.702 18.5052 13.1096 18.5052 13.9793 17.6354C14.8491 16.7657 14.8491 15.3581 13.9795 14.4885C13.9616 14.4705 13.9436 14.4548 13.9257 14.4391C13.9078 14.4235 13.8898 14.4078 13.8719 14.3898Z" fill="white"/>
</g>
</svg>
